<?xml version="1.0" encoding="utf-8"?>
<svg version="1.1" id="b-icon" xmlns="http://www.w3.org/2000/svg" xmlns:xlink="http://www.w3.org/1999/xlink" x="0px" y="0px"
	 viewBox="0 0 195 153" style="enable-background:new 0 0 195 153;" xml:space="preserve">
<style type="text/css">
	.st0{fill:#7BA8B3;}
	.st1{filter:url(#Adobe_OpacityMaskFilter);}
	.st2{fill:#FFFFFF;}
	.st3{mask:url(#mask-2_1_);fill:#7BA8B3;}
	.st4{filter:url(#Adobe_OpacityMaskFilter_1_);}
	.st5{mask:url(#mask-4_1_);fill:#7BA8B3;}
	.st6{fill:#FFFFFE;}
	.st7{fill:none;stroke:#7BA8B3;stroke-width:0.5;stroke-linejoin:bevel;}
</style>
<g id="b-icon-lines">
	<path id="Fill-1" class="st0" d="M123.6,4.6c-4.1,12.1-8.2,24.1-12.5,36.1l-12.9,36L85,112.5c-4.5,11.9-9,23.8-13.6,35.7
		c4.1-12.1,8.2-24.1,12.5-36.1l12.9-36L110,40.3C114.4,28.4,119,16.5,123.6,4.6"/>
	<path id="Fill-3" class="st0" d="M146.6,17.9c-8,9.9-16,19.8-24.1,29.7L98.1,76.9l-24.7,29.1c-8.3,9.7-16.6,19.3-25,28.9
		c8-9.9,16-19.8,24.1-29.7l24.4-29.4l24.7-29.1C129.8,37.1,138.2,27.5,146.6,17.9"/>
	<path id="Fill-5" class="st0" d="M163.7,38.2c-10.9,6.6-21.8,13.2-32.8,19.6l-33,19.3L64.7,96.1c-11.1,6.3-22.2,12.5-33.4,18.6
		C42.2,108,53.1,101.5,64.1,95l33-19.3l33.2-18.9C141.3,50.5,152.5,44.3,163.7,38.2"/>
	<path id="Fill-7" class="st0" d="M172.7,63.2c-12.5,2.5-25,4.9-37.5,7.2l-37.6,6.8L60,83.7c-12.6,2.1-25.1,4.1-37.7,6
		c12.5-2.5,25-4.9,37.5-7.2l37.6-6.8l37.7-6.4C147.6,67.1,160.1,65.1,172.7,63.2"/>
	<path id="Fill-9" class="st0" d="M172.7,89.7c-12.6-1.9-25.2-3.9-37.7-6l-37.7-6.4l-37.6-6.8c-12.5-2.3-25-4.7-37.5-7.2
		c12.6,1.9,25.2,3.9,37.7,6l37.7,6.5l37.6,6.8C147.7,84.8,160.2,87.2,172.7,89.7"/>
	<path id="Fill-11" class="st0" d="M163.7,114.6c-11.2-6.1-22.3-12.3-33.4-18.6L97.1,77.1l-33-19.3c-11-6.5-21.9-13-32.8-19.6
		c11.2,6.1,22.3,12.3,33.4,18.6l33.2,18.9l33,19.3C141.9,101.5,152.8,108,163.7,114.6"/>
	<path id="Fill-13" class="st0" d="M146.6,135c-8.4-9.6-16.8-19.2-25-28.9L96.9,76.9L72.5,47.6c-8.1-9.8-16.1-19.7-24.1-29.7
		c8.4,9.6,16.8,19.2,25,28.9l24.7,29.1l24.4,29.4C130.6,115.1,138.6,125,146.6,135"/>
	<path id="Fill-15" class="st0" d="M123.6,148.2c-4.6-11.9-9.2-23.8-13.6-35.7L96.7,76.7l-12.9-36c-4.3-12-8.4-24-12.5-36.1
		C76,16.5,80.5,28.4,85,40.3l13.2,35.8l12.9,36C115.4,124.1,119.5,136.2,123.6,148.2"/>
	<g id="Group-19" transform="translate(93.547690, 0.000000)">
		<g id="Clip-18">
		</g>
		<defs>
			<filter id="Adobe_OpacityMaskFilter" filterUnits="userSpaceOnUse" x="3.1" y="0" width="1.6" height="152.8">
				<feColorMatrix  type="matrix" values="1 0 0 0 0  0 1 0 0 0  0 0 1 0 0  0 0 0 1 0"/>
			</filter>
		</defs>
		<mask maskUnits="userSpaceOnUse" x="3.1" y="0" width="1.6" height="152.8" id="mask-2_1_">
			<g class="st1">
				<polygon id="path-1_1_" class="st2" points="3.1,0 6.4,0 6.4,152.8 3.1,152.8 				"/>
			</g>
		</mask>
		<path id="Fill-17" class="st3" d="M3.9,152.8c-0.3-12.7-0.5-25.5-0.6-38.2L3.1,76.4l0.2-38.2C3.4,25.5,3.6,12.8,3.9,0
			c0.3,12.7,0.5,25.5,0.6,38.2l0.2,38.2l-0.2,38.2C4.4,127.4,4.2,140.1,3.9,152.8"/>
	</g>
	<path id="Fill-20" class="st0" d="M158.6,53.6c-10.1,4.1-20.2,8.1-30.3,12L97.8,77.2L67.2,88.4C57,92.1,46.7,95.8,36.4,99.3
		c10.1-4.1,20.2-8.1,30.3-12l30.5-11.6l30.6-11.3C138,60.7,148.3,57.1,158.6,53.6"/>
	<g id="Group-24" transform="translate(0.000000, 77.418778)">
		<g id="Clip-23">
		</g>
		<defs>
			<filter id="Adobe_OpacityMaskFilter_1_" filterUnits="userSpaceOnUse" x="0" y="-1.9" width="195" height="1.8">
				<feColorMatrix  type="matrix" values="1 0 0 0 0  0 1 0 0 0  0 0 1 0 0  0 0 0 1 0"/>
			</filter>
		</defs>
		<mask maskUnits="userSpaceOnUse" x="0" y="-1.9" width="195" height="1.8" id="mask-4_1_">
			<g class="st4">
				<polygon id="path-3_1_" class="st2" points="0,-1.9 195,-1.9 195,1.3 0,1.3 				"/>
			</g>
		</mask>
		<path id="Fill-22" class="st5" d="M195-1.6c-10.9,0.4-54,0.7-64.9,0.9L97.5-0.2L64.9-0.1C54-0.1,10.9-0.2,0-0.4
			c10.9-0.4,54-0.7,64.9-0.9l32.6-0.5l32.6-0.1C141-1.9,184.1-1.8,195-1.6"/>
	</g>
	<path id="Fill-25" class="st0" d="M159,98.2c-10.3-3.3-20.7-6.8-30.9-10.3L97.2,77.2l-30.7-11C56.3,62.4,46.2,58.6,36,54.7
		C46.4,58,56.7,61.5,67,65l30.8,10.7l30.7,11C138.6,90.4,148.8,94.3,159,98.2"/>
	<path id="Fill-27" class="st0" d="M147.8,117.9c-8.6-6.7-17.1-13.4-25.6-20.2L97,77l-25-20.9c-8.3-7-16.6-14.1-24.8-21.2
		c8.6,6.7,17.1,13.4,25.6,20.2L98,75.8l25,20.9C131.4,103.7,139.6,110.7,147.8,117.9"/>
	<path id="Fill-29" class="st0" d="M130.6,132.6c-5.8-9.2-11.5-18.5-17.1-27.8l-16.7-28L80.4,48.7c-5.4-9.4-10.8-18.9-16-28.4
		c5.8,9.2,11.5,18.5,17.1,27.8l16.7,28l16.4,28.2C120,113.6,125.3,123.1,130.6,132.6"/>
	<path id="Fill-31" class="st0" d="M109.4,140.5c-2.3-10.6-4.5-21.3-6.6-31.9l-6.1-32l-5.8-32.1c-1.9-10.7-3.7-21.4-5.3-32.2
		c2.3,10.6,4.5,21.3,6.6,31.9l6.1,32l5.8,32.1C105.9,119.1,107.7,129.8,109.4,140.5"/>
	<path id="Fill-33" class="st0" d="M86.8,140.7c1.5-10.8,3.1-21.5,4.8-32.3l5.2-32.2l5.6-32.1c1.9-10.7,3.9-21.4,6-32.1
		c-1.5,10.8-3.1,21.5-4.8,32.3l-5.2,32.2l-5.6,32.1C90.8,119.4,88.8,130.1,86.8,140.7"/>
	<path id="Fill-35" class="st0" d="M65.4,133.2c5.1-9.6,10.3-19.2,15.5-28.7L96.8,76L113,47.7c5.4-9.4,11-18.8,16.6-28.1
		c-5.1,9.6-10.2,19.2-15.5,28.7L98.2,76.8L82,105.1C76.5,114.5,71,123.9,65.4,133.2"/>
	<path id="Fill-37" class="st0" d="M47.9,118.8c8.1-7.3,16.2-14.5,24.4-21.7L97,75.8l24.9-21c8.3-7,16.7-13.9,25.2-20.7
		c-8.1,7.3-16.2,14.5-24.4,21.7L98,77l-24.9,21C64.8,105.1,56.4,112,47.9,118.8"/>
</g>
<path id="b-icon-white-circle" class="st6" d="M132.1,76.4c0,19.1-15.5,34.6-34.6,34.6S62.9,95.5,62.9,76.4s15.5-34.6,34.6-34.6
	S132.1,57.3,132.1,76.4"/>
<path id="b-icon-b" class="st0" d="M88.8,76.4v10.4h14.7c2.9,0,5.2-2.3,5.2-5.2c0-2.9-2.3-5.2-5.2-5.2H88.8z M88.8,74.8h13.3
	c2.1,0,3.8-1.7,3.8-3.8c0-2.1-1.7-3.5-3.8-3.5H88.8V74.8z M105.4,75.2c2.9,0.8,5.1,3.3,5.1,6.4c0,3.8-3.1,6.8-6.8,6.8H88
	c-0.5,0-0.9-0.4-0.9-0.9v-21c0-0.5,0.4-0.9,0.9-0.9h14.4c3,0,5.3,2.4,5.3,5.3C107.6,72.9,106.8,74.3,105.4,75.2z"/>
<path id="b-icon-blue-stroke" class="st7" d="M126.6,76.4c0,16.1-13,29.1-29.1,29.1c-16.1,0-29.1-13-29.1-29.1s13-29.1,29.1-29.1
	C113.6,47.3,126.6,60.4,126.6,76.4z"/>
</svg>
