<?xml version="1.0" encoding="utf-8"?>
<svg version="1.1" id="ornament-icon" xmlns="http://www.w3.org/2000/svg" xmlns:xlink="http://www.w3.org/1999/xlink" x="0px"
	 y="0px" viewBox="0 0 70 24" style="enable-background:new 0 0 70 24;" xml:space="preserve">
<style type="text/css">
	.st0{fill:#7BA8B3;}
	.st1{fill:#FFFFFE;}
</style>
<g id="ornament-icon-lines">
	<path id="Fill-15" class="st0" d="M29,23c1.7-3.7,3.7-7.2,5.6-10.7c2-3.5,4.1-7,6.4-10.3c-1.7,3.7-3.7,7.2-5.6,10.7
		C33.3,16.2,31.3,19.7,29,23"/>
	<path id="Fill-17" class="st0" d="M24,18c3.3-2.3,6.8-4.3,10.3-6.4c3.5-2,7-3.9,10.7-5.6c-3.3,2.3-6.8,4.3-10.3,6.4
		C31.2,14.3,27.7,16.3,24,18"/>
	<path id="Fill-19" class="st0" d="M0,12.4C4,12.1,31,12,35,12c4,0,31,0.1,35,0.4c-4,0.3-31,0.4-35,0.4C31,12.8,4,12.7,0,12.4"/>
	<path id="Fill-21" class="st0" d="M24,6c3.7,1.7,7.2,3.7,10.7,5.6c3.5,2,7,4.1,10.3,6.4c-3.7-1.7-7.2-3.7-10.7-5.6
		C30.8,10.3,27.3,8.3,24,6"/>
	<path id="Fill-23" class="st0" d="M29,2c2.3,3.3,4.3,6.8,6.4,10.3c2,3.5,3.9,7,5.6,10.7c-2.3-3.3-4.3-6.8-6.4-10.3
		C32.7,9.2,30.7,5.7,29,2"/>
	<path id="Fill-25" class="st0" d="M34.4,0c0.3,4,0.4,8,0.4,12c0,4-0.1,8-0.4,12c-0.3-4-0.4-8-0.4-12C34,8,34.1,4,34.4,0"/>
</g>
<path id="ornament-icon-white-circle" class="st1" d="M38,12.5c0,1.9-1.6,3.5-3.5,3.5c-1.9,0-3.5-1.6-3.5-3.5c0-1.9,1.6-3.5,3.5-3.5
	C36.4,9,38,10.6,38,12.5"/>
</svg>
